<mxfile host="app.diagrams.net" agent="Mozilla/5.0 (Windows NT 10.0; Win64; x64) AppleWebKit/537.36 (KHTML, like Gecko) Chrome/136.0.0.0 Safari/537.36 Edg/136.0.0.0" version="27.0.4">
  <diagram name="Page-1" id="vhnLVdyEpynIuJDC2xWT">
    <mxGraphModel dx="2918" dy="1140" grid="1" gridSize="10" guides="1" tooltips="1" connect="1" arrows="1" fold="1" page="1" pageScale="1" pageWidth="850" pageHeight="1100" math="0" shadow="0">
      <root>
        <mxCell id="0" />
        <mxCell id="1" parent="0" />
        <mxCell id="6HyQ7ZZYAMLn-aotvrUm-5" value="&lt;div&gt;&amp;lt;&amp;lt;enumeration&amp;gt;&amp;gt;&lt;/div&gt;Uloga" style="swimlane;fontStyle=1;align=center;verticalAlign=top;childLayout=stackLayout;horizontal=1;startSize=40;horizontalStack=0;resizeParent=1;resizeParentMax=0;resizeLast=0;collapsible=1;marginBottom=0;whiteSpace=wrap;html=1;fillColor=#f5f5f5;fontColor=#333333;strokeColor=#666666;" parent="1" vertex="1">
          <mxGeometry x="37" y="1860" width="200" height="102" as="geometry" />
        </mxCell>
        <mxCell id="6HyQ7ZZYAMLn-aotvrUm-6" value="ADMIN&lt;div&gt;KURIRSKA_SLUZBA&lt;br&gt;KORISNIK&lt;/div&gt;" style="text;strokeColor=none;fillColor=none;align=left;verticalAlign=top;spacingLeft=4;spacingRight=4;overflow=hidden;rotatable=0;points=[[0,0.5],[1,0.5]];portConstraint=eastwest;whiteSpace=wrap;html=1;" parent="6HyQ7ZZYAMLn-aotvrUm-5" vertex="1">
          <mxGeometry y="40" width="200" height="54" as="geometry" />
        </mxCell>
        <mxCell id="6HyQ7ZZYAMLn-aotvrUm-7" value="" style="line;strokeWidth=1;fillColor=none;align=left;verticalAlign=middle;spacingTop=-1;spacingLeft=3;spacingRight=3;rotatable=0;labelPosition=right;points=[];portConstraint=eastwest;strokeColor=inherit;" parent="6HyQ7ZZYAMLn-aotvrUm-5" vertex="1">
          <mxGeometry y="94" width="200" height="8" as="geometry" />
        </mxCell>
        <mxCell id="6HyQ7ZZYAMLn-aotvrUm-38" value="MailServis" style="swimlane;fontStyle=1;align=center;verticalAlign=top;childLayout=stackLayout;horizontal=1;startSize=26;horizontalStack=0;resizeParent=1;resizeParentMax=0;resizeLast=0;collapsible=1;marginBottom=0;whiteSpace=wrap;html=1;fillColor=#1ba1e2;strokeColor=#006EAF;fontColor=#ffffff;" parent="1" vertex="1">
          <mxGeometry x="-360" y="1860" width="277" height="55" as="geometry">
            <mxRectangle x="116" y="602" width="90" height="26" as="alternateBounds" />
          </mxGeometry>
        </mxCell>
        <mxCell id="6HyQ7ZZYAMLn-aotvrUm-39" value="-mailPosiljaoca: string" style="text;strokeColor=none;fillColor=none;align=left;verticalAlign=top;spacingLeft=4;spacingRight=4;overflow=hidden;rotatable=0;points=[[0,0.5],[1,0.5]];portConstraint=eastwest;whiteSpace=wrap;html=1;" parent="6HyQ7ZZYAMLn-aotvrUm-38" vertex="1">
          <mxGeometry y="26" width="277" height="21" as="geometry" />
        </mxCell>
        <mxCell id="6HyQ7ZZYAMLn-aotvrUm-40" value="" style="line;strokeWidth=1;fillColor=none;align=left;verticalAlign=middle;spacingTop=-1;spacingLeft=3;spacingRight=3;rotatable=0;labelPosition=right;points=[];portConstraint=eastwest;strokeColor=inherit;" parent="6HyQ7ZZYAMLn-aotvrUm-38" vertex="1">
          <mxGeometry y="47" width="277" height="8" as="geometry" />
        </mxCell>
        <mxCell id="6HyQ7ZZYAMLn-aotvrUm-42" value="Pracenje" style="swimlane;fontStyle=1;align=center;verticalAlign=top;childLayout=stackLayout;horizontal=1;startSize=26;horizontalStack=0;resizeParent=1;resizeParentMax=0;resizeLast=0;collapsible=1;marginBottom=0;whiteSpace=wrap;html=1;fillColor=#60a917;strokeColor=#2D7600;fontColor=#ffffff;" parent="1" vertex="1">
          <mxGeometry x="-219" y="1617.5" width="136" height="81" as="geometry">
            <mxRectangle x="116" y="602" width="90" height="26" as="alternateBounds" />
          </mxGeometry>
        </mxCell>
        <mxCell id="6HyQ7ZZYAMLn-aotvrUm-43" value="&lt;div&gt;+id: int&lt;/div&gt;+praceniId: int&lt;div&gt;+pratilacId: int&lt;/div&gt;" style="text;strokeColor=none;fillColor=none;align=left;verticalAlign=top;spacingLeft=4;spacingRight=4;overflow=hidden;rotatable=0;points=[[0,0.5],[1,0.5]];portConstraint=eastwest;whiteSpace=wrap;html=1;" parent="6HyQ7ZZYAMLn-aotvrUm-42" vertex="1">
          <mxGeometry y="26" width="136" height="47" as="geometry" />
        </mxCell>
        <mxCell id="6HyQ7ZZYAMLn-aotvrUm-44" value="" style="line;strokeWidth=1;fillColor=none;align=left;verticalAlign=middle;spacingTop=-1;spacingLeft=3;spacingRight=3;rotatable=0;labelPosition=right;points=[];portConstraint=eastwest;strokeColor=inherit;" parent="6HyQ7ZZYAMLn-aotvrUm-42" vertex="1">
          <mxGeometry y="73" width="136" height="8" as="geometry" />
        </mxCell>
        <mxCell id="6HyQ7ZZYAMLn-aotvrUm-55" value="Korisnik" style="swimlane;fontStyle=1;align=center;verticalAlign=top;childLayout=stackLayout;horizontal=1;startSize=26;horizontalStack=0;resizeParent=1;resizeParentMax=0;resizeLast=0;collapsible=1;marginBottom=0;whiteSpace=wrap;html=1;fillColor=#fff2cc;strokeColor=#d6b656;" parent="1" vertex="1">
          <mxGeometry x="37" y="1550" width="200" height="198" as="geometry" />
        </mxCell>
        <mxCell id="6HyQ7ZZYAMLn-aotvrUm-56" value="+id: int&lt;div&gt;+ime: string&lt;/div&gt;&lt;div&gt;+prezime: string&lt;/div&gt;&lt;div&gt;+email: string&lt;/div&gt;&lt;div&gt;+grad: string&lt;/div&gt;&lt;div&gt;+adresa: string&lt;/div&gt;&lt;div&gt;+datumRegistracije: date&lt;/div&gt;&lt;div&gt;-sifra: string&lt;/div&gt;&lt;div&gt;+brojTelefona: string&lt;/div&gt;&lt;div&gt;+uloga: Uloga&lt;/div&gt;&lt;div&gt;+imeKurirskeSluzbe: string | null&lt;/div&gt;" style="text;strokeColor=none;fillColor=none;align=left;verticalAlign=top;spacingLeft=4;spacingRight=4;overflow=hidden;rotatable=0;points=[[0,0.5],[1,0.5]];portConstraint=eastwest;whiteSpace=wrap;html=1;" parent="6HyQ7ZZYAMLn-aotvrUm-55" vertex="1">
          <mxGeometry y="26" width="200" height="164" as="geometry" />
        </mxCell>
        <mxCell id="6HyQ7ZZYAMLn-aotvrUm-57" value="" style="line;strokeWidth=1;fillColor=none;align=left;verticalAlign=middle;spacingTop=-1;spacingLeft=3;spacingRight=3;rotatable=0;labelPosition=right;points=[];portConstraint=eastwest;strokeColor=inherit;" parent="6HyQ7ZZYAMLn-aotvrUm-55" vertex="1">
          <mxGeometry y="190" width="200" height="8" as="geometry" />
        </mxCell>
        <mxCell id="6HyQ7ZZYAMLn-aotvrUm-58" value="Notifikacija" style="swimlane;fontStyle=1;align=center;verticalAlign=top;childLayout=stackLayout;horizontal=1;startSize=26;horizontalStack=0;resizeParent=1;resizeParentMax=0;resizeLast=0;collapsible=1;marginBottom=0;whiteSpace=wrap;html=1;fillColor=#dae8fc;strokeColor=#6c8ebf;" parent="1" vertex="1">
          <mxGeometry x="37" y="1320" width="200" height="112" as="geometry" />
        </mxCell>
        <mxCell id="6HyQ7ZZYAMLn-aotvrUm-59" value="&lt;div&gt;+id: int&lt;/div&gt;&lt;div&gt;+sadrzaj: string&lt;/div&gt;&lt;div&gt;+datumSlanja: string&lt;/div&gt;&lt;div&gt;+procitano: bool&lt;/div&gt;&lt;div&gt;+korisnikId: int&lt;/div&gt;" style="text;strokeColor=none;fillColor=none;align=left;verticalAlign=top;spacingLeft=4;spacingRight=4;overflow=hidden;rotatable=0;points=[[0,0.5],[1,0.5]];portConstraint=eastwest;whiteSpace=wrap;html=1;" parent="6HyQ7ZZYAMLn-aotvrUm-58" vertex="1">
          <mxGeometry y="26" width="200" height="78" as="geometry" />
        </mxCell>
        <mxCell id="6HyQ7ZZYAMLn-aotvrUm-60" value="" style="line;strokeWidth=1;fillColor=none;align=left;verticalAlign=middle;spacingTop=-1;spacingLeft=3;spacingRight=3;rotatable=0;labelPosition=right;points=[];portConstraint=eastwest;strokeColor=inherit;" parent="6HyQ7ZZYAMLn-aotvrUm-58" vertex="1">
          <mxGeometry y="104" width="200" height="8" as="geometry" />
        </mxCell>
        <mxCell id="6HyQ7ZZYAMLn-aotvrUm-61" value="&lt;div&gt;&amp;lt;&amp;lt;enumeration&amp;gt;&amp;gt;&lt;/div&gt;Stanje" style="swimlane;fontStyle=1;align=center;verticalAlign=top;childLayout=stackLayout;horizontal=1;startSize=40;horizontalStack=0;resizeParent=1;resizeParentMax=0;resizeLast=0;collapsible=1;marginBottom=0;whiteSpace=wrap;html=1;fillColor=#f5f5f5;fontColor=#333333;strokeColor=#666666;" parent="1" vertex="1">
          <mxGeometry x="357" y="1320" width="200" height="80" as="geometry" />
        </mxCell>
        <mxCell id="6HyQ7ZZYAMLn-aotvrUm-62" value="KORISTENO&lt;div&gt;NOVO&lt;/div&gt;" style="text;strokeColor=none;fillColor=none;align=left;verticalAlign=top;spacingLeft=4;spacingRight=4;overflow=hidden;rotatable=0;points=[[0,0.5],[1,0.5]];portConstraint=eastwest;whiteSpace=wrap;html=1;" parent="6HyQ7ZZYAMLn-aotvrUm-61" vertex="1">
          <mxGeometry y="40" width="200" height="32" as="geometry" />
        </mxCell>
        <mxCell id="6HyQ7ZZYAMLn-aotvrUm-63" value="" style="line;strokeWidth=1;fillColor=none;align=left;verticalAlign=middle;spacingTop=-1;spacingLeft=3;spacingRight=3;rotatable=0;labelPosition=right;points=[];portConstraint=eastwest;strokeColor=inherit;" parent="6HyQ7ZZYAMLn-aotvrUm-61" vertex="1">
          <mxGeometry y="72" width="200" height="8" as="geometry" />
        </mxCell>
        <mxCell id="6HyQ7ZZYAMLn-aotvrUm-64" value="Artikal" style="swimlane;fontStyle=1;align=center;verticalAlign=top;childLayout=stackLayout;horizontal=1;startSize=26;horizontalStack=0;resizeParent=1;resizeParentMax=0;resizeLast=0;collapsible=1;marginBottom=0;whiteSpace=wrap;html=1;fillColor=#d5e8d4;strokeColor=#82b366;" parent="1" vertex="1">
          <mxGeometry x="357" y="1460" width="200" height="155" as="geometry" />
        </mxCell>
        <mxCell id="6HyQ7ZZYAMLn-aotvrUm-65" value="+id: int&lt;div&gt;+naziv: string&lt;/div&gt;&lt;div&gt;+opis: string&lt;/div&gt;&lt;div&gt;+cijena: float&lt;/div&gt;&lt;div&gt;+lokacija: string&lt;/div&gt;&lt;div&gt;+datumObjave: date&lt;/div&gt;&lt;div&gt;+stanje: Stanje&lt;/div&gt;&lt;div&gt;+korisnikId: int&lt;/div&gt;&lt;div&gt;&lt;br&gt;&lt;/div&gt;" style="text;strokeColor=none;fillColor=none;align=left;verticalAlign=top;spacingLeft=4;spacingRight=4;overflow=hidden;rotatable=0;points=[[0,0.5],[1,0.5]];portConstraint=eastwest;whiteSpace=wrap;html=1;" parent="6HyQ7ZZYAMLn-aotvrUm-64" vertex="1">
          <mxGeometry y="26" width="200" height="121" as="geometry" />
        </mxCell>
        <mxCell id="6HyQ7ZZYAMLn-aotvrUm-66" value="" style="line;strokeWidth=1;fillColor=none;align=left;verticalAlign=middle;spacingTop=-1;spacingLeft=3;spacingRight=3;rotatable=0;labelPosition=right;points=[];portConstraint=eastwest;strokeColor=inherit;" parent="6HyQ7ZZYAMLn-aotvrUm-64" vertex="1">
          <mxGeometry y="147" width="200" height="8" as="geometry" />
        </mxCell>
        <mxCell id="6HyQ7ZZYAMLn-aotvrUm-67" value="Narudzba" style="swimlane;fontStyle=1;align=center;verticalAlign=top;childLayout=stackLayout;horizontal=1;startSize=26;horizontalStack=0;resizeParent=1;resizeParentMax=0;resizeLast=0;collapsible=1;marginBottom=0;whiteSpace=wrap;html=1;fillColor=#e1d5e7;strokeColor=#9673a6;" parent="1" vertex="1">
          <mxGeometry x="357" y="1670" width="200" height="142" as="geometry" />
        </mxCell>
        <mxCell id="6HyQ7ZZYAMLn-aotvrUm-68" value="+id: int&lt;div&gt;+datumNarudzbe: date&lt;/div&gt;&lt;div&gt;+status: Status&lt;/div&gt;&lt;div&gt;+datumObrade: date | null&lt;/div&gt;&lt;div&gt;+korisnikId: int&lt;/div&gt;&lt;div&gt;+artikalId: int&lt;/div&gt;&lt;div&gt;+kurirskaSluzbaId: int | null&lt;/div&gt;" style="text;strokeColor=none;fillColor=none;align=left;verticalAlign=top;spacingLeft=4;spacingRight=4;overflow=hidden;rotatable=0;points=[[0,0.5],[1,0.5]];portConstraint=eastwest;whiteSpace=wrap;html=1;" parent="6HyQ7ZZYAMLn-aotvrUm-67" vertex="1">
          <mxGeometry y="26" width="200" height="108" as="geometry" />
        </mxCell>
        <mxCell id="6HyQ7ZZYAMLn-aotvrUm-69" value="" style="line;strokeWidth=1;fillColor=none;align=left;verticalAlign=middle;spacingTop=-1;spacingLeft=3;spacingRight=3;rotatable=0;labelPosition=right;points=[];portConstraint=eastwest;strokeColor=inherit;" parent="6HyQ7ZZYAMLn-aotvrUm-67" vertex="1">
          <mxGeometry y="134" width="200" height="8" as="geometry" />
        </mxCell>
        <mxCell id="6HyQ7ZZYAMLn-aotvrUm-70" value="&lt;div&gt;&amp;lt;&amp;lt;enumeration&amp;gt;&amp;gt;&lt;/div&gt;Status" style="swimlane;fontStyle=1;align=center;verticalAlign=top;childLayout=stackLayout;horizontal=1;startSize=40;horizontalStack=0;resizeParent=1;resizeParentMax=0;resizeLast=0;collapsible=1;marginBottom=0;whiteSpace=wrap;html=1;fillColor=#f5f5f5;fontColor=#333333;strokeColor=#666666;" parent="1" vertex="1">
          <mxGeometry x="357" y="1860" width="200" height="98" as="geometry" />
        </mxCell>
        <mxCell id="6HyQ7ZZYAMLn-aotvrUm-71" value="KREIRAN&lt;br&gt;U OBRADI&lt;div&gt;DOSTAVLJEN&lt;/div&gt;" style="text;strokeColor=none;fillColor=none;align=left;verticalAlign=top;spacingLeft=4;spacingRight=4;overflow=hidden;rotatable=0;points=[[0,0.5],[1,0.5]];portConstraint=eastwest;whiteSpace=wrap;html=1;" parent="6HyQ7ZZYAMLn-aotvrUm-70" vertex="1">
          <mxGeometry y="40" width="200" height="50" as="geometry" />
        </mxCell>
        <mxCell id="6HyQ7ZZYAMLn-aotvrUm-72" value="" style="line;strokeWidth=1;fillColor=none;align=left;verticalAlign=middle;spacingTop=-1;spacingLeft=3;spacingRight=3;rotatable=0;labelPosition=right;points=[];portConstraint=eastwest;strokeColor=inherit;" parent="6HyQ7ZZYAMLn-aotvrUm-70" vertex="1">
          <mxGeometry y="90" width="200" height="8" as="geometry" />
        </mxCell>
        <mxCell id="6HyQ7ZZYAMLn-aotvrUm-74" value="" style="endArrow=none;html=1;rounded=0;exitX=0.5;exitY=0;exitDx=0;exitDy=0;entryX=0.5;entryY=1;entryDx=0;entryDy=0;" parent="1" source="6HyQ7ZZYAMLn-aotvrUm-70" target="6HyQ7ZZYAMLn-aotvrUm-67" edge="1">
          <mxGeometry width="50" height="50" relative="1" as="geometry">
            <mxPoint x="237" y="1700" as="sourcePoint" />
            <mxPoint x="287" y="1650" as="targetPoint" />
          </mxGeometry>
        </mxCell>
        <mxCell id="6HyQ7ZZYAMLn-aotvrUm-76" value="" style="endArrow=none;html=1;rounded=0;exitX=0.5;exitY=0;exitDx=0;exitDy=0;entryX=0.5;entryY=1;entryDx=0;entryDy=0;" parent="1" source="6HyQ7ZZYAMLn-aotvrUm-5" target="6HyQ7ZZYAMLn-aotvrUm-55" edge="1">
          <mxGeometry width="50" height="50" relative="1" as="geometry">
            <mxPoint x="237" y="1700" as="sourcePoint" />
            <mxPoint x="287" y="1650" as="targetPoint" />
          </mxGeometry>
        </mxCell>
        <mxCell id="6HyQ7ZZYAMLn-aotvrUm-77" value="" style="endArrow=none;html=1;rounded=0;entryX=0.5;entryY=1;entryDx=0;entryDy=0;" parent="1" source="6HyQ7ZZYAMLn-aotvrUm-64" target="6HyQ7ZZYAMLn-aotvrUm-61" edge="1">
          <mxGeometry width="50" height="50" relative="1" as="geometry">
            <mxPoint x="237" y="1700" as="sourcePoint" />
            <mxPoint x="287" y="1650" as="targetPoint" />
          </mxGeometry>
        </mxCell>
        <mxCell id="6HyQ7ZZYAMLn-aotvrUm-78" value="" style="endArrow=diamondThin;endFill=1;endSize=24;html=1;rounded=0;exitX=0.5;exitY=1;exitDx=0;exitDy=0;" parent="1" source="6HyQ7ZZYAMLn-aotvrUm-58" target="6HyQ7ZZYAMLn-aotvrUm-55" edge="1">
          <mxGeometry width="160" relative="1" as="geometry">
            <mxPoint x="187" y="1670" as="sourcePoint" />
            <mxPoint x="347" y="1670" as="targetPoint" />
          </mxGeometry>
        </mxCell>
        <mxCell id="6HyQ7ZZYAMLn-aotvrUm-88" value="*" style="edgeLabel;html=1;align=center;verticalAlign=middle;resizable=0;points=[];" parent="6HyQ7ZZYAMLn-aotvrUm-78" vertex="1" connectable="0">
          <mxGeometry x="-0.5033" relative="1" as="geometry">
            <mxPoint x="10" y="-11" as="offset" />
          </mxGeometry>
        </mxCell>
        <mxCell id="6HyQ7ZZYAMLn-aotvrUm-89" value="1" style="edgeLabel;html=1;align=center;verticalAlign=middle;resizable=0;points=[];" parent="6HyQ7ZZYAMLn-aotvrUm-78" vertex="1" connectable="0">
          <mxGeometry x="0.1849" relative="1" as="geometry">
            <mxPoint x="10" y="28" as="offset" />
          </mxGeometry>
        </mxCell>
        <mxCell id="6HyQ7ZZYAMLn-aotvrUm-80" value="" style="endArrow=diamondThin;endFill=1;endSize=24;html=1;rounded=0;entryX=0;entryY=0.159;entryDx=0;entryDy=0;entryPerimeter=0;exitX=0.5;exitY=0;exitDx=0;exitDy=0;" parent="1" source="6HyQ7ZZYAMLn-aotvrUm-42" target="6HyQ7ZZYAMLn-aotvrUm-56" edge="1">
          <mxGeometry width="160" relative="1" as="geometry">
            <mxPoint x="-143" y="1600" as="sourcePoint" />
            <mxPoint x="17" y="1600" as="targetPoint" />
            <Array as="points">
              <mxPoint x="-151" y="1602" />
            </Array>
          </mxGeometry>
        </mxCell>
        <mxCell id="6HyQ7ZZYAMLn-aotvrUm-94" value="1" style="edgeLabel;html=1;align=center;verticalAlign=middle;resizable=0;points=[];" parent="6HyQ7ZZYAMLn-aotvrUm-80" vertex="1" connectable="0">
          <mxGeometry x="-0.0633" y="3" relative="1" as="geometry">
            <mxPoint x="86" y="-19" as="offset" />
          </mxGeometry>
        </mxCell>
        <mxCell id="6HyQ7ZZYAMLn-aotvrUm-96" value="*" style="edgeLabel;html=1;align=center;verticalAlign=middle;resizable=0;points=[];" parent="6HyQ7ZZYAMLn-aotvrUm-80" vertex="1" connectable="0">
          <mxGeometry x="0.1427" y="3" relative="1" as="geometry">
            <mxPoint x="-91" y="-9" as="offset" />
          </mxGeometry>
        </mxCell>
        <mxCell id="6HyQ7ZZYAMLn-aotvrUm-82" value="" style="endArrow=diamondThin;endFill=1;endSize=24;html=1;rounded=0;exitX=0.5;exitY=1;exitDx=0;exitDy=0;entryX=0.005;entryY=0.872;entryDx=0;entryDy=0;entryPerimeter=0;" parent="1" source="6HyQ7ZZYAMLn-aotvrUm-42" target="6HyQ7ZZYAMLn-aotvrUm-56" edge="1">
          <mxGeometry width="160" relative="1" as="geometry">
            <mxPoint x="-153" y="1720" as="sourcePoint" />
            <mxPoint x="7" y="1720" as="targetPoint" />
            <Array as="points">
              <mxPoint x="-151" y="1720" />
            </Array>
          </mxGeometry>
        </mxCell>
        <mxCell id="6HyQ7ZZYAMLn-aotvrUm-95" value="1" style="edgeLabel;html=1;align=center;verticalAlign=middle;resizable=0;points=[];" parent="6HyQ7ZZYAMLn-aotvrUm-82" vertex="1" connectable="0">
          <mxGeometry x="0.1774" y="1" relative="1" as="geometry">
            <mxPoint x="62" y="-17" as="offset" />
          </mxGeometry>
        </mxCell>
        <mxCell id="6HyQ7ZZYAMLn-aotvrUm-97" value="*" style="edgeLabel;html=1;align=center;verticalAlign=middle;resizable=0;points=[];" parent="6HyQ7ZZYAMLn-aotvrUm-82" vertex="1" connectable="0">
          <mxGeometry x="-0.0627" relative="1" as="geometry">
            <mxPoint x="-70" y="-10" as="offset" />
          </mxGeometry>
        </mxCell>
        <mxCell id="6HyQ7ZZYAMLn-aotvrUm-83" value="" style="endArrow=diamondThin;endFill=1;endSize=24;html=1;rounded=0;exitX=0.001;exitY=0.943;exitDx=0;exitDy=0;exitPerimeter=0;entryX=0.999;entryY=0.392;entryDx=0;entryDy=0;entryPerimeter=0;" parent="1" source="6HyQ7ZZYAMLn-aotvrUm-65" target="6HyQ7ZZYAMLn-aotvrUm-56" edge="1">
          <mxGeometry width="160" relative="1" as="geometry">
            <mxPoint x="357" y="1630" as="sourcePoint" />
            <mxPoint x="257" y="1601" as="targetPoint" />
            <Array as="points">
              <mxPoint x="300" y="1600" />
              <mxPoint x="300" y="1640" />
            </Array>
          </mxGeometry>
        </mxCell>
        <mxCell id="6HyQ7ZZYAMLn-aotvrUm-90" value="1" style="edgeLabel;html=1;align=center;verticalAlign=middle;resizable=0;points=[];" parent="6HyQ7ZZYAMLn-aotvrUm-83" vertex="1" connectable="0">
          <mxGeometry x="-0.1566" relative="1" as="geometry">
            <mxPoint x="-40" y="11" as="offset" />
          </mxGeometry>
        </mxCell>
        <mxCell id="6HyQ7ZZYAMLn-aotvrUm-91" value="*" style="edgeLabel;html=1;align=center;verticalAlign=middle;resizable=0;points=[];" parent="6HyQ7ZZYAMLn-aotvrUm-83" vertex="1" connectable="0">
          <mxGeometry x="-0.0357" relative="1" as="geometry">
            <mxPoint x="48" y="-10" as="offset" />
          </mxGeometry>
        </mxCell>
        <mxCell id="6HyQ7ZZYAMLn-aotvrUm-84" value="" style="endArrow=diamondThin;endFill=1;endSize=24;html=1;rounded=0;exitX=0.001;exitY=0.224;exitDx=0;exitDy=0;exitPerimeter=0;entryX=1;entryY=0.635;entryDx=0;entryDy=0;entryPerimeter=0;" parent="1" source="6HyQ7ZZYAMLn-aotvrUm-68" target="6HyQ7ZZYAMLn-aotvrUm-56" edge="1">
          <mxGeometry width="160" relative="1" as="geometry">
            <mxPoint x="347" y="1720" as="sourcePoint" />
            <mxPoint x="240" y="1680" as="targetPoint" />
            <Array as="points">
              <mxPoint x="300" y="1720" />
              <mxPoint x="300" y="1680" />
            </Array>
          </mxGeometry>
        </mxCell>
        <mxCell id="6HyQ7ZZYAMLn-aotvrUm-92" value="1" style="edgeLabel;html=1;align=center;verticalAlign=middle;resizable=0;points=[];" parent="6HyQ7ZZYAMLn-aotvrUm-84" vertex="1" connectable="0">
          <mxGeometry x="-0.0241" y="1" relative="1" as="geometry">
            <mxPoint x="-41" as="offset" />
          </mxGeometry>
        </mxCell>
        <mxCell id="6HyQ7ZZYAMLn-aotvrUm-93" value="*" style="edgeLabel;html=1;align=center;verticalAlign=middle;resizable=0;points=[];" parent="6HyQ7ZZYAMLn-aotvrUm-84" vertex="1" connectable="0">
          <mxGeometry x="-0.0038" y="-3" relative="1" as="geometry">
            <mxPoint x="47" y="12" as="offset" />
          </mxGeometry>
        </mxCell>
        <mxCell id="6HyQ7ZZYAMLn-aotvrUm-86" value="" style="endArrow=diamondThin;endFill=0;endSize=24;html=1;rounded=0;entryX=0.5;entryY=0;entryDx=0;entryDy=0;exitX=0.5;exitY=1;exitDx=0;exitDy=0;" parent="1" source="6HyQ7ZZYAMLn-aotvrUm-64" target="6HyQ7ZZYAMLn-aotvrUm-67" edge="1">
          <mxGeometry width="160" relative="1" as="geometry">
            <mxPoint x="167" y="1640" as="sourcePoint" />
            <mxPoint x="327" y="1640" as="targetPoint" />
          </mxGeometry>
        </mxCell>
        <mxCell id="6HyQ7ZZYAMLn-aotvrUm-98" value="1" style="edgeLabel;html=1;align=center;verticalAlign=middle;resizable=0;points=[];" parent="6HyQ7ZZYAMLn-aotvrUm-86" vertex="1" connectable="0">
          <mxGeometry x="-0.3724" y="-1" relative="1" as="geometry">
            <mxPoint x="11" y="17" as="offset" />
          </mxGeometry>
        </mxCell>
        <mxCell id="6HyQ7ZZYAMLn-aotvrUm-99" value="*" style="edgeLabel;html=1;align=center;verticalAlign=middle;resizable=0;points=[];" parent="6HyQ7ZZYAMLn-aotvrUm-86" vertex="1" connectable="0">
          <mxGeometry x="-0.349" y="-2" relative="1" as="geometry">
            <mxPoint x="12" y="-3" as="offset" />
          </mxGeometry>
        </mxCell>
        <mxCell id="6HyQ7ZZYAMLn-aotvrUm-123" value="KorisnikView" style="swimlane;fontStyle=1;align=center;verticalAlign=top;childLayout=stackLayout;horizontal=1;startSize=26;horizontalStack=0;resizeParent=1;resizeParentMax=0;resizeLast=0;collapsible=1;marginBottom=0;whiteSpace=wrap;html=1;fillColor=#fff2cc;strokeColor=#d6b656;" parent="1" vertex="1">
          <mxGeometry x="-200" y="240" width="200" height="80" as="geometry" />
        </mxCell>
        <mxCell id="6HyQ7ZZYAMLn-aotvrUm-125" value="ArtikalView" style="swimlane;fontStyle=1;align=center;verticalAlign=top;childLayout=stackLayout;horizontal=1;startSize=26;horizontalStack=0;resizeParent=1;resizeParentMax=0;resizeLast=0;collapsible=1;marginBottom=0;whiteSpace=wrap;html=1;fillColor=#d5e8d4;strokeColor=#82b366;" parent="1" vertex="1">
          <mxGeometry x="40" y="240" width="200" height="80" as="geometry" />
        </mxCell>
        <mxCell id="6HyQ7ZZYAMLn-aotvrUm-126" value="NarudzbaView" style="swimlane;fontStyle=1;align=center;verticalAlign=top;childLayout=stackLayout;horizontal=1;startSize=26;horizontalStack=0;resizeParent=1;resizeParentMax=0;resizeLast=0;collapsible=1;marginBottom=0;whiteSpace=wrap;html=1;fillColor=#e1d5e7;strokeColor=#9673a6;" parent="1" vertex="1">
          <mxGeometry x="280" y="240" width="320" height="80" as="geometry" />
        </mxCell>
        <mxCell id="6HyQ7ZZYAMLn-aotvrUm-127" value="NotifikacijaView" style="swimlane;fontStyle=1;align=center;verticalAlign=top;childLayout=stackLayout;horizontal=1;startSize=26;horizontalStack=0;resizeParent=1;resizeParentMax=0;resizeLast=0;collapsible=1;marginBottom=0;whiteSpace=wrap;html=1;fillColor=#dae8fc;strokeColor=#6c8ebf;" parent="1" vertex="1">
          <mxGeometry x="640" y="240" width="200" height="80" as="geometry" />
        </mxCell>
        <mxCell id="6HyQ7ZZYAMLn-aotvrUm-128" value="PracenjeView" style="swimlane;fontStyle=1;align=center;verticalAlign=top;childLayout=stackLayout;horizontal=1;startSize=26;horizontalStack=0;resizeParent=1;resizeParentMax=0;resizeLast=0;collapsible=1;marginBottom=0;whiteSpace=wrap;html=1;fillColor=#60a917;strokeColor=#2D7600;fontColor=#ffffff;" parent="1" vertex="1">
          <mxGeometry x="880" y="240" width="200" height="80" as="geometry">
            <mxRectangle x="116" y="602" width="90" height="26" as="alternateBounds" />
          </mxGeometry>
        </mxCell>
        <mxCell id="Fb6GStgYsCp82DXiF_qo-17" value="MailServisController" style="swimlane;fontStyle=1;align=center;verticalAlign=top;childLayout=stackLayout;horizontal=1;startSize=26;horizontalStack=0;resizeParent=1;resizeParentMax=0;resizeLast=0;collapsible=1;marginBottom=0;whiteSpace=wrap;html=1;fillColor=#1ba1e2;strokeColor=#006EAF;fontColor=#ffffff;" parent="1" vertex="1">
          <mxGeometry x="-520" y="480" width="280" height="100" as="geometry">
            <mxRectangle x="116" y="602" width="90" height="26" as="alternateBounds" />
          </mxGeometry>
        </mxCell>
        <mxCell id="Fb6GStgYsCp82DXiF_qo-18" value="- context: DataContext" style="text;strokeColor=none;fillColor=none;align=left;verticalAlign=top;spacingLeft=4;spacingRight=4;overflow=hidden;rotatable=0;points=[[0,0.5],[1,0.5]];portConstraint=eastwest;whiteSpace=wrap;html=1;" parent="Fb6GStgYsCp82DXiF_qo-17" vertex="1">
          <mxGeometry y="26" width="280" height="21" as="geometry" />
        </mxCell>
        <mxCell id="Fb6GStgYsCp82DXiF_qo-19" value="" style="line;strokeWidth=1;fillColor=none;align=left;verticalAlign=middle;spacingTop=-1;spacingLeft=3;spacingRight=3;rotatable=0;labelPosition=right;points=[];portConstraint=eastwest;strokeColor=inherit;" parent="Fb6GStgYsCp82DXiF_qo-17" vertex="1">
          <mxGeometry y="47" width="280" height="8" as="geometry" />
        </mxCell>
        <mxCell id="Fb6GStgYsCp82DXiF_qo-20" value="+postaviMailPosiljaoca(e: string): void&lt;div&gt;+posaljiMail(naslov: string, tekst: string): void&lt;/div&gt;" style="text;strokeColor=none;fillColor=none;align=left;verticalAlign=top;spacingLeft=4;spacingRight=4;overflow=hidden;rotatable=0;points=[[0,0.5],[1,0.5]];portConstraint=eastwest;whiteSpace=wrap;html=1;" parent="Fb6GStgYsCp82DXiF_qo-17" vertex="1">
          <mxGeometry y="55" width="280" height="45" as="geometry" />
        </mxCell>
        <mxCell id="Fb6GStgYsCp82DXiF_qo-21" value="KorisnikController" style="swimlane;fontStyle=1;align=center;verticalAlign=top;childLayout=stackLayout;horizontal=1;startSize=26;horizontalStack=0;resizeParent=1;resizeParentMax=0;resizeLast=0;collapsible=1;marginBottom=0;whiteSpace=wrap;html=1;fillColor=#fff2cc;strokeColor=#d6b656;" parent="1" vertex="1">
          <mxGeometry x="-200" y="480" width="200" height="58" as="geometry" />
        </mxCell>
        <mxCell id="Fb6GStgYsCp82DXiF_qo-22" value="- context: DataContext" style="text;strokeColor=none;fillColor=none;align=left;verticalAlign=top;spacingLeft=4;spacingRight=4;overflow=hidden;rotatable=0;points=[[0,0.5],[1,0.5]];portConstraint=eastwest;whiteSpace=wrap;html=1;" parent="Fb6GStgYsCp82DXiF_qo-21" vertex="1">
          <mxGeometry y="26" width="200" height="24" as="geometry" />
        </mxCell>
        <mxCell id="Fb6GStgYsCp82DXiF_qo-23" value="" style="line;strokeWidth=1;fillColor=none;align=left;verticalAlign=middle;spacingTop=-1;spacingLeft=3;spacingRight=3;rotatable=0;labelPosition=right;points=[];portConstraint=eastwest;strokeColor=inherit;" parent="Fb6GStgYsCp82DXiF_qo-21" vertex="1">
          <mxGeometry y="50" width="200" height="8" as="geometry" />
        </mxCell>
        <mxCell id="Fb6GStgYsCp82DXiF_qo-37" value="" style="endArrow=diamondThin;endFill=1;endSize=24;html=1;rounded=0;entryX=0.498;entryY=1.007;entryDx=0;entryDy=0;entryPerimeter=0;exitX=0;exitY=0.5;exitDx=0;exitDy=0;" parent="1" target="Fb6GStgYsCp82DXiF_qo-20" edge="1">
          <mxGeometry width="160" relative="1" as="geometry">
            <mxPoint x="40" y="1060" as="sourcePoint" />
            <mxPoint x="-510" y="620" as="targetPoint" />
            <Array as="points">
              <mxPoint x="-380" y="1060" />
            </Array>
          </mxGeometry>
        </mxCell>
        <mxCell id="Fb6GStgYsCp82DXiF_qo-40" value="" style="endArrow=diamondThin;endFill=1;endSize=24;html=1;rounded=0;entryX=0.5;entryY=1;entryDx=0;entryDy=0;exitX=0;exitY=0.25;exitDx=0;exitDy=0;" parent="1" target="Fb6GStgYsCp82DXiF_qo-21" edge="1">
          <mxGeometry width="160" relative="1" as="geometry">
            <mxPoint x="40" y="1010.0000000000002" as="sourcePoint" />
            <mxPoint x="-160.31999999999994" y="700.1619999999998" as="targetPoint" />
            <Array as="points">
              <mxPoint x="-100" y="1010" />
            </Array>
          </mxGeometry>
        </mxCell>
        <mxCell id="Fb6GStgYsCp82DXiF_qo-43" value="" style="endArrow=diamondThin;endFill=1;endSize=24;html=1;rounded=0;exitX=1;exitY=0.5;exitDx=0;exitDy=0;entryX=0.495;entryY=1.011;entryDx=0;entryDy=0;entryPerimeter=0;" parent="1" target="DzoSU-QEwUSIHPAZbbWe-25" edge="1">
          <mxGeometry width="160" relative="1" as="geometry">
            <mxPoint x="240.00000000000023" y="1060" as="sourcePoint" />
            <mxPoint x="740" y="680" as="targetPoint" />
            <Array as="points">
              <mxPoint x="740" y="1060" />
            </Array>
          </mxGeometry>
        </mxCell>
        <mxCell id="Fb6GStgYsCp82DXiF_qo-45" value="" style="endArrow=diamondThin;endFill=1;endSize=24;html=1;rounded=0;entryX=0.25;entryY=1;entryDx=0;entryDy=0;exitX=0.267;exitY=0.002;exitDx=0;exitDy=0;exitPerimeter=0;" parent="1" source="6HyQ7ZZYAMLn-aotvrUm-58" edge="1">
          <mxGeometry width="160" relative="1" as="geometry">
            <mxPoint x="140" y="1310" as="sourcePoint" />
            <mxPoint x="90.00000000000023" y="1160" as="targetPoint" />
            <Array as="points" />
          </mxGeometry>
        </mxCell>
        <mxCell id="Fb6GStgYsCp82DXiF_qo-46" value="" style="endArrow=diamondThin;endFill=1;endSize=24;html=1;rounded=0;exitX=1;exitY=0.25;exitDx=0;exitDy=0;" parent="1" source="6HyQ7ZZYAMLn-aotvrUm-55" edge="1">
          <mxGeometry width="160" relative="1" as="geometry">
            <mxPoint x="260" y="1540" as="sourcePoint" />
            <mxPoint x="140" y="1160" as="targetPoint" />
            <Array as="points">
              <mxPoint x="280" y="1600" />
              <mxPoint x="280" y="1260" />
              <mxPoint x="140" y="1260" />
            </Array>
          </mxGeometry>
        </mxCell>
        <mxCell id="Fb6GStgYsCp82DXiF_qo-47" value="" style="endArrow=diamondThin;endFill=1;endSize=24;html=1;rounded=0;exitX=0.283;exitY=-0.002;exitDx=0;exitDy=0;exitPerimeter=0;entryX=0;entryY=1;entryDx=0;entryDy=0;" parent="1" source="6HyQ7ZZYAMLn-aotvrUm-42" edge="1">
          <mxGeometry width="160" relative="1" as="geometry">
            <mxPoint x="-180" y="1570" as="sourcePoint" />
            <mxPoint x="40" y="1159.9999999999998" as="targetPoint" />
            <Array as="points">
              <mxPoint x="-181" y="1160" />
            </Array>
          </mxGeometry>
        </mxCell>
        <mxCell id="Fb6GStgYsCp82DXiF_qo-48" value="" style="endArrow=diamondThin;endFill=1;endSize=24;html=1;rounded=0;entryX=0;entryY=0.75;entryDx=0;entryDy=0;exitX=0.286;exitY=0.007;exitDx=0;exitDy=0;exitPerimeter=0;" parent="1" source="6HyQ7ZZYAMLn-aotvrUm-38" edge="1">
          <mxGeometry width="160" relative="1" as="geometry">
            <mxPoint x="-280" y="1820" as="sourcePoint" />
            <mxPoint x="40" y="1109.9999999999998" as="targetPoint" />
            <Array as="points">
              <mxPoint x="-280" y="1110" />
            </Array>
          </mxGeometry>
        </mxCell>
        <mxCell id="Fb6GStgYsCp82DXiF_qo-49" value="" style="endArrow=diamondThin;endFill=1;endSize=24;html=1;rounded=0;entryX=1;entryY=1;entryDx=0;entryDy=0;exitX=1.003;exitY=0.583;exitDx=0;exitDy=0;exitPerimeter=0;" parent="1" source="6HyQ7ZZYAMLn-aotvrUm-68" edge="1">
          <mxGeometry width="160" relative="1" as="geometry">
            <mxPoint x="640" y="1520" as="sourcePoint" />
            <mxPoint x="240.00000000000023" y="1160" as="targetPoint" />
            <Array as="points">
              <mxPoint x="640" y="1759" />
              <mxPoint x="640" y="1160" />
            </Array>
          </mxGeometry>
        </mxCell>
        <mxCell id="Fb6GStgYsCp82DXiF_qo-50" value="" style="endArrow=diamondThin;endFill=1;endSize=24;html=1;rounded=0;entryX=0.75;entryY=1;entryDx=0;entryDy=0;exitX=0.001;exitY=0.28;exitDx=0;exitDy=0;exitPerimeter=0;" parent="1" source="6HyQ7ZZYAMLn-aotvrUm-65" edge="1">
          <mxGeometry width="160" relative="1" as="geometry">
            <mxPoint x="390" y="1610" as="sourcePoint" />
            <mxPoint x="190.00000000000023" y="1160" as="targetPoint" />
            <Array as="points">
              <mxPoint x="320" y="1520" />
              <mxPoint x="320" y="1220" />
              <mxPoint x="190" y="1220" />
            </Array>
          </mxGeometry>
        </mxCell>
        <mxCell id="Fb6GStgYsCp82DXiF_qo-55" value="" style="html=1;verticalAlign=bottom;endArrow=open;dashed=1;endSize=8;curved=0;rounded=0;entryX=0.5;entryY=1;entryDx=0;entryDy=0;exitX=0.5;exitY=0;exitDx=0;exitDy=0;" parent="1" source="DzoSU-QEwUSIHPAZbbWe-15" target="6HyQ7ZZYAMLn-aotvrUm-128" edge="1">
          <mxGeometry relative="1" as="geometry">
            <mxPoint x="860" y="480" as="sourcePoint" />
            <mxPoint x="850" y="330" as="targetPoint" />
          </mxGeometry>
        </mxCell>
        <mxCell id="Fb6GStgYsCp82DXiF_qo-56" value="" style="html=1;verticalAlign=bottom;endArrow=open;dashed=1;endSize=8;curved=0;rounded=0;entryX=0.5;entryY=1;entryDx=0;entryDy=0;exitX=0.5;exitY=0;exitDx=0;exitDy=0;" parent="1" target="6HyQ7ZZYAMLn-aotvrUm-127" edge="1">
          <mxGeometry relative="1" as="geometry">
            <mxPoint x="740" y="480" as="sourcePoint" />
            <mxPoint x="619.1700000000001" y="330" as="targetPoint" />
          </mxGeometry>
        </mxCell>
        <mxCell id="Fb6GStgYsCp82DXiF_qo-57" value="" style="html=1;verticalAlign=bottom;endArrow=open;dashed=1;endSize=8;curved=0;rounded=0;exitX=0.5;exitY=0;exitDx=0;exitDy=0;" parent="1" source="DzoSU-QEwUSIHPAZbbWe-11" edge="1">
          <mxGeometry relative="1" as="geometry">
            <mxPoint x="380" y="480" as="sourcePoint" />
            <mxPoint x="440" y="320" as="targetPoint" />
          </mxGeometry>
        </mxCell>
        <mxCell id="Fb6GStgYsCp82DXiF_qo-58" value="" style="html=1;verticalAlign=bottom;endArrow=open;dashed=1;endSize=8;curved=0;rounded=0;exitX=0.5;exitY=0;exitDx=0;exitDy=0;" parent="1" edge="1">
          <mxGeometry relative="1" as="geometry">
            <mxPoint x="140" y="480" as="sourcePoint" />
            <mxPoint x="140" y="320" as="targetPoint" />
          </mxGeometry>
        </mxCell>
        <mxCell id="Fb6GStgYsCp82DXiF_qo-59" value="" style="html=1;verticalAlign=bottom;endArrow=open;dashed=1;endSize=8;curved=0;rounded=0;entryX=0.5;entryY=1;entryDx=0;entryDy=0;exitX=0.5;exitY=0;exitDx=0;exitDy=0;" parent="1" source="Fb6GStgYsCp82DXiF_qo-21" target="6HyQ7ZZYAMLn-aotvrUm-123" edge="1">
          <mxGeometry relative="1" as="geometry">
            <mxPoint x="-40.829999999999984" y="470" as="sourcePoint" />
            <mxPoint x="-40.829999999999984" y="330" as="targetPoint" />
          </mxGeometry>
        </mxCell>
        <mxCell id="DzoSU-QEwUSIHPAZbbWe-7" value="ArtikalController" style="swimlane;fontStyle=1;align=center;verticalAlign=top;childLayout=stackLayout;horizontal=1;startSize=26;horizontalStack=0;resizeParent=1;resizeParentMax=0;resizeLast=0;collapsible=1;marginBottom=0;whiteSpace=wrap;html=1;fillColor=#d5e8d4;strokeColor=#82b366;" vertex="1" parent="1">
          <mxGeometry x="38.5" y="480" width="201.5" height="130" as="geometry">
            <mxRectangle x="116" y="602" width="90" height="26" as="alternateBounds" />
          </mxGeometry>
        </mxCell>
        <mxCell id="DzoSU-QEwUSIHPAZbbWe-8" value="- context: DataContext" style="text;strokeColor=none;fillColor=none;align=left;verticalAlign=top;spacingLeft=4;spacingRight=4;overflow=hidden;rotatable=0;points=[[0,0.5],[1,0.5]];portConstraint=eastwest;whiteSpace=wrap;html=1;" vertex="1" parent="DzoSU-QEwUSIHPAZbbWe-7">
          <mxGeometry y="26" width="201.5" height="21" as="geometry" />
        </mxCell>
        <mxCell id="DzoSU-QEwUSIHPAZbbWe-9" value="" style="line;strokeWidth=1;fillColor=none;align=left;verticalAlign=middle;spacingTop=-1;spacingLeft=3;spacingRight=3;rotatable=0;labelPosition=right;points=[];portConstraint=eastwest;strokeColor=inherit;" vertex="1" parent="DzoSU-QEwUSIHPAZbbWe-7">
          <mxGeometry y="47" width="201.5" height="8" as="geometry" />
        </mxCell>
        <mxCell id="DzoSU-QEwUSIHPAZbbWe-10" value="+dajArtikle(): List&amp;lt;Artikal&amp;gt;&lt;div&gt;+objaviArtikal(a: Artikal): void&lt;/div&gt;&lt;div&gt;+azurirajArtikal(a: Artikal): void&lt;/div&gt;&lt;div&gt;+obrisiArtikal(a: Artikal): void&lt;/div&gt;" style="text;strokeColor=none;fillColor=none;align=left;verticalAlign=top;spacingLeft=4;spacingRight=4;overflow=hidden;rotatable=0;points=[[0,0.5],[1,0.5]];portConstraint=eastwest;whiteSpace=wrap;html=1;" vertex="1" parent="DzoSU-QEwUSIHPAZbbWe-7">
          <mxGeometry y="55" width="201.5" height="75" as="geometry" />
        </mxCell>
        <mxCell id="DzoSU-QEwUSIHPAZbbWe-11" value="NarudzbaController" style="swimlane;fontStyle=1;align=center;verticalAlign=top;childLayout=stackLayout;horizontal=1;startSize=26;horizontalStack=0;resizeParent=1;resizeParentMax=0;resizeLast=0;collapsible=1;marginBottom=0;whiteSpace=wrap;html=1;fillColor=#e1d5e7;strokeColor=#9673a6;" vertex="1" parent="1">
          <mxGeometry x="278.5" y="480" width="321.5" height="140" as="geometry">
            <mxRectangle x="116" y="602" width="90" height="26" as="alternateBounds" />
          </mxGeometry>
        </mxCell>
        <mxCell id="DzoSU-QEwUSIHPAZbbWe-12" value="- context: DataContext" style="text;strokeColor=none;fillColor=none;align=left;verticalAlign=top;spacingLeft=4;spacingRight=4;overflow=hidden;rotatable=0;points=[[0,0.5],[1,0.5]];portConstraint=eastwest;whiteSpace=wrap;html=1;" vertex="1" parent="DzoSU-QEwUSIHPAZbbWe-11">
          <mxGeometry y="26" width="321.5" height="21" as="geometry" />
        </mxCell>
        <mxCell id="DzoSU-QEwUSIHPAZbbWe-13" value="" style="line;strokeWidth=1;fillColor=none;align=left;verticalAlign=middle;spacingTop=-1;spacingLeft=3;spacingRight=3;rotatable=0;labelPosition=right;points=[];portConstraint=eastwest;strokeColor=inherit;" vertex="1" parent="DzoSU-QEwUSIHPAZbbWe-11">
          <mxGeometry y="47" width="321.5" height="8" as="geometry" />
        </mxCell>
        <mxCell id="DzoSU-QEwUSIHPAZbbWe-14" value="&lt;div&gt;+naruci(a: Artikal): void&lt;/div&gt;&lt;div&gt;&lt;div&gt;+dajZaprimljeneNarudzbe(): List&amp;lt;Narudzba&amp;gt;&lt;/div&gt;+zaprimiNarudzbu(n: Narudzba): void&lt;div&gt;+otkaziNarudzbu(n: Narudzba): void&lt;/div&gt;&lt;div&gt;+azurirajStatusNarudzbe(n: Narudzba, s: Status): void&lt;/div&gt;&lt;/div&gt;" style="text;strokeColor=none;fillColor=none;align=left;verticalAlign=top;spacingLeft=4;spacingRight=4;overflow=hidden;rotatable=0;points=[[0,0.5],[1,0.5]];portConstraint=eastwest;whiteSpace=wrap;html=1;" vertex="1" parent="DzoSU-QEwUSIHPAZbbWe-11">
          <mxGeometry y="55" width="321.5" height="85" as="geometry" />
        </mxCell>
        <mxCell id="DzoSU-QEwUSIHPAZbbWe-15" value="&lt;span style=&quot;color: rgb(255, 255, 255);&quot;&gt;PracenjeController&lt;/span&gt;" style="swimlane;fontStyle=1;align=center;verticalAlign=top;childLayout=stackLayout;horizontal=1;startSize=26;horizontalStack=0;resizeParent=1;resizeParentMax=0;resizeLast=0;collapsible=1;marginBottom=0;whiteSpace=wrap;html=1;fillColor=#60a917;strokeColor=#2D7600;fontColor=#ffffff;" vertex="1" parent="1">
          <mxGeometry x="880" y="480" width="201.5" height="80" as="geometry">
            <mxRectangle x="116" y="602" width="90" height="26" as="alternateBounds" />
          </mxGeometry>
        </mxCell>
        <mxCell id="DzoSU-QEwUSIHPAZbbWe-16" value="- context: DataContext" style="text;strokeColor=none;fillColor=none;align=left;verticalAlign=top;spacingLeft=4;spacingRight=4;overflow=hidden;rotatable=0;points=[[0,0.5],[1,0.5]];portConstraint=eastwest;whiteSpace=wrap;html=1;" vertex="1" parent="DzoSU-QEwUSIHPAZbbWe-15">
          <mxGeometry y="26" width="201.5" height="21" as="geometry" />
        </mxCell>
        <mxCell id="DzoSU-QEwUSIHPAZbbWe-17" value="" style="line;strokeWidth=1;fillColor=none;align=left;verticalAlign=middle;spacingTop=-1;spacingLeft=3;spacingRight=3;rotatable=0;labelPosition=right;points=[];portConstraint=eastwest;strokeColor=inherit;" vertex="1" parent="DzoSU-QEwUSIHPAZbbWe-15">
          <mxGeometry y="47" width="201.5" height="8" as="geometry" />
        </mxCell>
        <mxCell id="DzoSU-QEwUSIHPAZbbWe-18" value="+zaprati(k: Korisnik): void" style="text;strokeColor=none;fillColor=none;align=left;verticalAlign=top;spacingLeft=4;spacingRight=4;overflow=hidden;rotatable=0;points=[[0,0.5],[1,0.5]];portConstraint=eastwest;whiteSpace=wrap;html=1;" vertex="1" parent="DzoSU-QEwUSIHPAZbbWe-15">
          <mxGeometry y="55" width="201.5" height="25" as="geometry" />
        </mxCell>
        <mxCell id="DzoSU-QEwUSIHPAZbbWe-19" value="" style="endArrow=diamondThin;endFill=1;endSize=24;html=1;rounded=0;entryX=0.496;entryY=1;entryDx=0;entryDy=0;exitX=1;exitY=0.75;exitDx=0;exitDy=0;entryPerimeter=0;" edge="1" parent="1" target="DzoSU-QEwUSIHPAZbbWe-18">
          <mxGeometry width="160" relative="1" as="geometry">
            <mxPoint x="240.00000000000023" y="1110" as="sourcePoint" />
            <mxPoint x="980" y="580" as="targetPoint" />
            <Array as="points">
              <mxPoint x="980" y="1110" />
            </Array>
          </mxGeometry>
        </mxCell>
        <mxCell id="DzoSU-QEwUSIHPAZbbWe-20" value="" style="endArrow=diamondThin;endFill=1;endSize=24;html=1;rounded=0;entryX=0.501;entryY=1.011;entryDx=0;entryDy=0;entryPerimeter=0;exitX=1;exitY=0.352;exitDx=0;exitDy=0;exitPerimeter=0;" edge="1" parent="1" target="DzoSU-QEwUSIHPAZbbWe-14">
          <mxGeometry width="160" relative="1" as="geometry">
            <mxPoint x="240.00000000000023" y="1011.6800000000001" as="sourcePoint" />
            <mxPoint x="627" y="610" as="targetPoint" />
            <Array as="points">
              <mxPoint x="440" y="1012" />
            </Array>
          </mxGeometry>
        </mxCell>
        <mxCell id="DzoSU-QEwUSIHPAZbbWe-21" value="" style="endArrow=diamondThin;endFill=1;endSize=24;html=1;rounded=0;entryX=0.504;entryY=1;entryDx=0;entryDy=0;entryPerimeter=0;exitX=0.5;exitY=0;exitDx=0;exitDy=0;" edge="1" parent="1" target="DzoSU-QEwUSIHPAZbbWe-10">
          <mxGeometry width="160" relative="1" as="geometry">
            <mxPoint x="140.00000000000023" y="960" as="sourcePoint" />
            <mxPoint x="158" y="670" as="targetPoint" />
            <Array as="points" />
          </mxGeometry>
        </mxCell>
        <mxCell id="DzoSU-QEwUSIHPAZbbWe-22" value="NotifikacijaController" style="swimlane;fontStyle=1;align=center;verticalAlign=top;childLayout=stackLayout;horizontal=1;startSize=26;horizontalStack=0;resizeParent=1;resizeParentMax=0;resizeLast=0;collapsible=1;marginBottom=0;whiteSpace=wrap;html=1;fillColor=#dae8fc;strokeColor=#6c8ebf;" vertex="1" parent="1">
          <mxGeometry x="640" y="480" width="201.5" height="100" as="geometry">
            <mxRectangle x="116" y="602" width="90" height="26" as="alternateBounds" />
          </mxGeometry>
        </mxCell>
        <mxCell id="DzoSU-QEwUSIHPAZbbWe-23" value="- context: DataContext" style="text;strokeColor=none;fillColor=none;align=left;verticalAlign=top;spacingLeft=4;spacingRight=4;overflow=hidden;rotatable=0;points=[[0,0.5],[1,0.5]];portConstraint=eastwest;whiteSpace=wrap;html=1;" vertex="1" parent="DzoSU-QEwUSIHPAZbbWe-22">
          <mxGeometry y="26" width="201.5" height="21" as="geometry" />
        </mxCell>
        <mxCell id="DzoSU-QEwUSIHPAZbbWe-24" value="" style="line;strokeWidth=1;fillColor=none;align=left;verticalAlign=middle;spacingTop=-1;spacingLeft=3;spacingRight=3;rotatable=0;labelPosition=right;points=[];portConstraint=eastwest;strokeColor=inherit;" vertex="1" parent="DzoSU-QEwUSIHPAZbbWe-22">
          <mxGeometry y="47" width="201.5" height="8" as="geometry" />
        </mxCell>
        <mxCell id="DzoSU-QEwUSIHPAZbbWe-25" value="+ dajNotifikacije(): List&amp;lt;Notifikacija&amp;gt;&lt;div&gt;&lt;div&gt;+ obiljeziKaoProcitano(): void&lt;/div&gt;&lt;/div&gt;" style="text;strokeColor=none;fillColor=none;align=left;verticalAlign=top;spacingLeft=4;spacingRight=4;overflow=hidden;rotatable=0;points=[[0,0.5],[1,0.5]];portConstraint=eastwest;whiteSpace=wrap;html=1;" vertex="1" parent="DzoSU-QEwUSIHPAZbbWe-22">
          <mxGeometry y="55" width="201.5" height="45" as="geometry" />
        </mxCell>
        <mxCell id="DzoSU-QEwUSIHPAZbbWe-26" value="DataContext" style="swimlane;fontStyle=1;align=center;verticalAlign=top;childLayout=stackLayout;horizontal=1;startSize=26;horizontalStack=0;resizeParent=1;resizeParentMax=0;resizeLast=0;collapsible=1;marginBottom=0;whiteSpace=wrap;html=1;fillColor=#e51400;strokeColor=#B20000;fontColor=#ffffff;" vertex="1" parent="1">
          <mxGeometry x="40" y="960" width="201.5" height="200" as="geometry">
            <mxRectangle x="116" y="602" width="90" height="26" as="alternateBounds" />
          </mxGeometry>
        </mxCell>
        <mxCell id="DzoSU-QEwUSIHPAZbbWe-29" value="&lt;span style=&quot;text-align: center; text-wrap-mode: nowrap;&quot;&gt;+ korisnici: DbSet&amp;lt;Korisnik&amp;gt;&lt;/span&gt;&lt;div&gt;&lt;span style=&quot;text-align: center; text-wrap-mode: nowrap; background-color: transparent; color: light-dark(rgb(0, 0, 0), rgb(255, 255, 255));&quot;&gt;+ artikli: DbSet&amp;lt;Artikal&amp;gt;&lt;/span&gt;&lt;/div&gt;&lt;div&gt;&lt;span style=&quot;text-align: center; text-wrap-mode: nowrap; background-color: transparent; color: light-dark(rgb(0, 0, 0), rgb(255, 255, 255));&quot;&gt;+ narudzbe: DbSet&amp;lt;Narudzba&amp;gt;&lt;/span&gt;&lt;/div&gt;&lt;div&gt;&lt;span style=&quot;text-align: center; text-wrap-mode: nowrap; background-color: transparent; color: light-dark(rgb(0, 0, 0), rgb(255, 255, 255));&quot;&gt;+ notifikacije: DbSet&amp;lt;Notifikacija&amp;gt;&lt;/span&gt;&lt;/div&gt;&lt;div&gt;&lt;span style=&quot;text-align: center; text-wrap-mode: nowrap; background-color: transparent; color: light-dark(rgb(0, 0, 0), rgb(255, 255, 255));&quot;&gt;+ pracenja: DbSet&amp;lt;Pracenje&amp;gt;&lt;/span&gt;&lt;/div&gt;" style="text;strokeColor=#b85450;fillColor=#f8cecc;align=left;verticalAlign=top;spacingLeft=4;spacingRight=4;overflow=hidden;rotatable=0;points=[[0,0.5],[1,0.5]];portConstraint=eastwest;whiteSpace=wrap;html=1;gradientColor=#ea6b66;" vertex="1" parent="DzoSU-QEwUSIHPAZbbWe-26">
          <mxGeometry y="26" width="201.5" height="174" as="geometry" />
        </mxCell>
      </root>
    </mxGraphModel>
  </diagram>
</mxfile>
